<?xml version="1.0" encoding="utf-8"?>
<!-- Generator: Adobe Illustrator 25.0.1, SVG Export Plug-In . SVG Version: 6.00 Build 0)  -->
<svg version="1.1" id="图层_1" xmlns="http://www.w3.org/2000/svg" xmlns:xlink="http://www.w3.org/1999/xlink" x="0px" y="0px"
	 viewBox="0 0 60.8 58.7" style="enable-background:new 0 0 60.8 58.7;" xml:space="preserve">
<g transform="translate(0.000000,362.000000) scale(0.100000,-0.100000)">
	<path d="M459.7,3548.8c-7.6-10.1-12.5-20.1-14.6-29.5c-1.4-6.9-2.4-7.8-9.2-7.8c-12.3,0-32.3-4.5-38.5-8.3c-4.3-3.1-5-4.7-3.1-8
		c1.9-3.8,4.5-4.3,22.9-3.3c15.3,0.9,22.9,0.2,29.3-2.4c7.6-3.1,8.7-5,12.3-18.4c13.5-50.5,11.6-90.4-6.1-123.4
		c-7.6-14.4-32.6-41.6-38-41.6c-4.5,0-10.4,7.3-24.1,29c-6.6,10.6-13.7,19.6-15.8,20.1c-5.4,1.2-11.3-12-12.7-28.1
		c-1.2-10.9,0-17.9,5.2-34.4c9.7-30,9-40.6-4.5-75.1c-29.7-75.5-26.4-115.9,10.1-120.9c23.3-3.1,74.6,23.8,104.3,55
		c18.2,19.3,47,63.5,47,72.2c0,1.9,11.1,10.9,24.5,20.3c13.5,9.2,30.4,22.4,37.8,29c13.5,12.3,24.1,28.5,21.5,32.8
		c-3.8,5.9-38.5-0.5-58.5-11.1c-3.8-1.9-7.3-2.8-8-2.4c-0.5,0.7,0,7.3,1.4,14.9s2.6,24.8,2.6,38.5c0,46.3-13.9,84.7-47.2,131.2
		c-9.2,13-18.9,27.6-21.5,32.3c-5,9.7-5.9,24.1-2.1,34c1.7,4.5,1.7,7.1-0.2,9.5C470.1,3558.2,465.9,3557,459.7,3548.8z
		 M487.8,3472.6c34.9-49.1,46.5-80.2,46.5-126.3c0-17.7-1.4-34-4.3-46.7c-5.7-25.7-4.3-27.1,17-17.5c17.7,8,36.8,14.6,42,14.6
		c11.1,0-15.1-22.2-69.1-58.5c-19.8-13.5-35.9-25.9-35.9-27.8c0-5,5.2-6.4,12.5-3.6c3.6,1.4,6.4,1.4,6.4,0.5
		c0-4.7-24.3-38.2-36.8-51c-23.6-24.1-68.7-48.4-89.4-48.4c-10.6,0-22.2,10.4-22.7,20.5c-1.2,23.6,3.6,45.1,19.6,86.8
		c11.6,30,11.8,31.1,10.6,49.6c-0.7,10.6-3.6,24.3-6.1,31.4c-5,12-7.1,40.6-3.1,40.6c0.9,0,5.2-5.9,9.5-13
		c10.9-17.9,22.2-29.5,29.3-29.5c8,0,34.9,24.8,45.3,42c14.2,23.3,19.1,44.4,18.9,78.4c-0.5,32.1-7.8,68.2-17.5,83.6
		c-4.7,7.8-6.4,20.3-3.1,23.6c0.9,0.7,3.6-3.6,5.9-9.7C465.6,3505.8,476.7,3488.1,487.8,3472.6z"/>
	<path d="M395.8,3166.7c-6.6-5.2-8-13.2-3.6-21.7c5.4-10.1,14.4-11.6,24.3-3.8c7.6,5.9,8,15.6,1.2,24.3
		C411.8,3172.8,404.3,3173.3,395.8,3166.7z"/>
	<path d="M199,3537.4c-33-13.5-62.1-35.4-82.1-62.1c-9.7-13-29.3-44.6-29.3-47.2c0-0.7,5.2,0.7,11.8,3.3c6.4,2.4,11.8,4,11.8,3.3
		c0-0.5-17.2-12.7-38.2-26.9c-43.4-29.3-60.4-43.4-67.7-55.9l-5.2-8.7l12.7,1.4c7.1,0.7,23.1,5.4,35.6,10.6c12.5,5.4,22.7,9,22.7,8
		c0-0.9-1.7-9.2-3.6-18.2c-1.9-9.2-3.6-28.1-3.6-42.5c0-47.9,12.3-81.9,47.2-131c24.6-34.2,27-39.6,25.3-58.2
		c-0.5-8.3-0.5-14.9,0.5-14.9c4.7,0,16.3,25.9,16.5,37.3c0.2,7.6,0.5,7.6,9.2,6.1c9-1.4,35.4,2.4,38.7,5.7c0.9,0.9-8,1.7-20.1,1.9
		c-25.9,0.2-35.4,4-39.2,15.6c-15.6,48.2-14.9,97.4,2.1,132.9c7.5,15.5,30.4,42,42,48.1c5,2.6,6.4,2.1,13.2-5.2
		c4-4.5,12-15.6,17.7-25c5.7-9.2,11.1-16.7,12-16.7c3.6,0,7.1,12.7,7.1,25.9c0,8.7-1.9,18.9-5,26.4c-2.6,6.9-5.4,20.5-6.1,30.2
		c-0.9,15.3-0.2,19.8,5,34.2c21,55.5,25.2,71,25.5,92C255.8,3542.2,236,3552.3,199,3537.4z M221.8,3495.9c6.4-8,6.4-16.1-0.2-22.2
		c-10.4-9.7-27.8-2.8-27.8,11.3c0,7.6,1.9,10.6,8.3,14.2C209.8,3503.7,216.6,3502.5,221.8,3495.9z"/>
</g>
</svg>
